<svg width="16" height="16" fill="none" xmlns="http://www.w3.org/2000/svg" svg-inline="" role="presentation" focusable="false" tabindex="-1"><path fill-rule="evenodd" clip-rule="evenodd" d="M7.334 3.333h7.333c.736 0 1.333.598 1.333 1.334v8.666c0 .736-.597 1.334-1.333 1.334H1.333A1.334 1.334 0 010 13.334V2.667c0-.736.597-1.333 1.333-1.333H6l1.334 2zM8.667 10h2c.367 0 .667-.3.667-.666 0-.367-.3-.667-.667-.667h-2v-2C8.667 6.3 8.367 6 8 6c-.366 0-.666.3-.666.667v2h-2c-.367 0-.667.3-.667.667 0 .366.3.666.666.666h2v2c0 .367.3.667.667.667.367 0 .667-.3.667-.667v-2z" fill="currentColor"></path></svg>